<svg id="Ebene_1" data-name="Ebene 1" xmlns="http://www.w3.org/2000/svg" viewBox="0 0 176.37 63.82"><defs><style>.cls-1{fill:#32d296;}.cls-2{fill:#dbdedb;}.cls-3{fill:#999492;}</style></defs><title>kubis_logo</title><path class="cls-1" d="M286.13,158.89h6.26v23.4h0.22c1.3-1.87,2.59-3.6,3.82-5.18l14.83-18.22H319l-17.57,20.59,18.94,27.94H313l-16-23.83-4.61,5.33v18.51h-6.26V158.89Z" transform="translate(-286.13 -158.1)"/><path class="cls-1" d="M333.32,158.89v28.73c0,10.87,4.82,15.48,11.31,15.48,7.2,0,11.81-4.75,11.81-15.48V158.89h6.34v28.3c0,14.91-7.85,21-18.36,21-9.94,0-17.43-5.69-17.43-20.74V158.89h6.34Z" transform="translate(-286.13 -158.1)"/><path class="cls-2" d="M375.54,159.54a60.73,60.73,0,0,1,11.45-1c6.26,0,10.3,1.08,13.32,3.53a10.18,10.18,0,0,1,4,8.57c0,4.68-3.1,8.79-8.21,10.66v0.14c4.61,1.15,10,5,10,12.17a13.08,13.08,0,0,1-4.1,9.72c-3.38,3.1-8.86,4.54-16.78,4.54a73.21,73.21,0,0,1-9.72-.58V159.54Zm6.26,19.87h5.69c6.63,0,10.51-3.46,10.51-8.14,0-5.69-4.32-7.92-10.66-7.92a26.89,26.89,0,0,0-5.54.43v15.63Zm0,23.26a33.5,33.5,0,0,0,5.26.29c6.48,0,12.46-2.38,12.46-9.43,0-6.62-5.69-9.36-12.53-9.36H381.8v18.51Z" transform="translate(-286.13 -158.1)"/><path class="cls-2" d="M422.72,158.89v48.53h-6.26V158.89h6.26Z" transform="translate(-286.13 -158.1)"/><path class="cls-3" d="M434.7,199.79A22.2,22.2,0,0,0,445.93,203c6.41,0,10.15-3.38,10.15-8.28,0-4.54-2.59-7.13-9.14-9.65-7.92-2.81-12.82-6.91-12.82-13.75,0-7.56,6.26-13.18,15.7-13.18a22.05,22.05,0,0,1,10.73,2.38l-1.73,5.11a19.33,19.33,0,0,0-9.22-2.3c-6.62,0-9.15,4-9.15,7.27,0,4.54,3,6.77,9.65,9.36,8.21,3.17,12.39,7.13,12.39,14.26,0,7.49-5.54,14-17,14-4.68,0-9.79-1.37-12.38-3.1Z" transform="translate(-286.13 -158.1)"/><path class="cls-3" d="M286.83,216.39v5.43h-0.7v-5.43h0.7Z" transform="translate(-286.13 -158.1)"/><path class="cls-3" d="M293.29,221.82v-5.43h0.77l1.74,2.75a15.36,15.36,0,0,1,1,1.77h0c-0.06-.73-0.08-1.39-0.08-2.23v-2.27h0.66v5.43h-0.71l-1.72-2.76a17.2,17.2,0,0,1-1-1.81h0c0,0.69.06,1.34,0.06,2.24v2.32h-0.66Z" transform="translate(-286.13 -158.1)"/><path class="cls-3" d="M303.82,216.39h2.93V217h-2.22v1.81h2.05v0.58h-2.05v2.46h-0.7v-5.43Z" transform="translate(-286.13 -158.1)"/><path class="cls-3" d="M317.62,219.05a2.54,2.54,0,0,1-2.52,2.86,2.49,2.49,0,0,1-2.44-2.76,2.58,2.58,0,0,1,2.52-2.85A2.47,2.47,0,0,1,317.62,219.05Zm-4.22.09a1.94,1.94,0,0,0,1.73,2.2c1.11,0,1.74-1,1.74-2.26a2,2,0,0,0-1.73-2.21C314,216.88,313.4,217.95,313.4,219.14Z" transform="translate(-286.13 -158.1)"/><path class="cls-3" d="M323.76,216.47a7.29,7.29,0,0,1,1.35-.11,2.22,2.22,0,0,1,1.57.44,1.35,1.35,0,0,1,.43,1,1.43,1.43,0,0,1-1,1.39v0a1.35,1.35,0,0,1,.8,1.1,8.66,8.66,0,0,0,.42,1.49h-0.73a7,7,0,0,1-.36-1.3,1.05,1.05,0,0,0-1.09-1.06h-0.66v2.35h-0.7v-5.36Zm0.7,2.47h0.72a1.07,1.07,0,0,0,1.22-1,1,1,0,0,0-1.25-1,2.88,2.88,0,0,0-.69.06v2Z" transform="translate(-286.13 -158.1)"/><path class="cls-3" d="M337.9,219.44c0-.76-0.09-1.67-0.08-2.34h0c-0.19.64-.41,1.31-0.69,2.06l-1,2.64h-0.53l-0.88-2.59c-0.26-.77-0.48-1.47-0.63-2.11h0c0,0.68-.06,1.59-0.1,2.4l-0.15,2.33h-0.67l0.38-5.43h0.89l0.93,2.63c0.23,0.67.41,1.27,0.55,1.83h0c0.14-.55.33-1.14,0.57-1.83l1-2.63h0.89l0.34,5.43H338Z" transform="translate(-286.13 -158.1)"/><path class="cls-3" d="M345.83,220.12l-0.56,1.71h-0.73l1.85-5.43h0.85l1.85,5.43h-0.75l-0.58-1.71h-1.93Zm1.78-.55L347.08,218c-0.12-.35-0.2-0.68-0.28-1h0c-0.08.32-.17,0.65-0.27,1L346,219.57h1.64Z" transform="translate(-286.13 -158.1)"/><path class="cls-3" d="M355.53,217h-1.65v-0.6h4V217h-1.66v4.84h-0.71V217Z" transform="translate(-286.13 -158.1)"/><path class="cls-3" d="M364.43,216.39v5.43h-0.7v-5.43h0.7Z" transform="translate(-286.13 -158.1)"/><path class="cls-3" d="M375.53,219.05a2.54,2.54,0,0,1-2.52,2.86,2.49,2.49,0,0,1-2.44-2.76,2.58,2.58,0,0,1,2.52-2.85A2.47,2.47,0,0,1,375.53,219.05Zm-4.22.09a1.94,1.94,0,0,0,1.73,2.2c1.11,0,1.74-1,1.74-2.26a2,2,0,0,0-1.73-2.21C371.9,216.88,371.32,217.95,371.32,219.14Z" transform="translate(-286.13 -158.1)"/><path class="cls-3" d="M381.67,221.82v-5.43h0.77l1.74,2.75a15.36,15.36,0,0,1,1,1.77h0c-0.06-.73-0.08-1.39-0.08-2.23v-2.27h0.66v5.43H385l-1.72-2.76a17.2,17.2,0,0,1-1-1.81h0c0,0.69.06,1.34,0.06,2.24v2.32h-0.66Z" transform="translate(-286.13 -158.1)"/><path class="cls-3" d="M392.11,221a2.49,2.49,0,0,0,1.26.35,1,1,0,0,0,1.14-.93,1.18,1.18,0,0,0-1-1.08,1.71,1.71,0,0,1-1.43-1.54,1.56,1.56,0,0,1,1.76-1.47,2.47,2.47,0,0,1,1.2.27l-0.19.57a2.16,2.16,0,0,0-1-.26,0.88,0.88,0,0,0-1,.81c0,0.51.33,0.76,1.08,1a1.69,1.69,0,0,1,1.39,1.6,1.64,1.64,0,0,1-1.9,1.56,2.81,2.81,0,0,1-1.39-.35Z" transform="translate(-286.13 -158.1)"/><path class="cls-3" d="M401.31,221a2.49,2.49,0,0,0,1.26.35,1,1,0,0,0,1.14-.93,1.18,1.18,0,0,0-1-1.08,1.71,1.71,0,0,1-1.43-1.54A1.56,1.56,0,0,1,403,216.3a2.47,2.47,0,0,1,1.2.27l-0.19.57a2.16,2.16,0,0,0-1-.26,0.88,0.88,0,0,0-1,.81c0,0.51.33,0.76,1.08,1a1.69,1.69,0,0,1,1.39,1.6,1.64,1.64,0,0,1-1.9,1.56,2.81,2.81,0,0,1-1.39-.35Z" transform="translate(-286.13 -158.1)"/><path class="cls-3" d="M411.82,221.82v-2.31l-1.72-3.13h0.8l0.77,1.5c0.21,0.41.37,0.74,0.54,1.12h0c0.15-.35.34-0.71,0.55-1.12l0.78-1.5h0.8l-1.82,3.12v2.31h-0.71Z" transform="translate(-286.13 -158.1)"/><path class="cls-3" d="M420,221a2.49,2.49,0,0,0,1.26.35,1,1,0,0,0,1.14-.93,1.18,1.18,0,0,0-1-1.08,1.71,1.71,0,0,1-1.43-1.54,1.56,1.56,0,0,1,1.76-1.47,2.47,2.47,0,0,1,1.2.27l-0.19.57a2.16,2.16,0,0,0-1-.26,0.88,0.88,0,0,0-1,.81c0,0.51.33,0.76,1.08,1a1.69,1.69,0,0,1,1.39,1.6,1.64,1.64,0,0,1-1.9,1.56,2.81,2.81,0,0,1-1.39-.35Z" transform="translate(-286.13 -158.1)"/><path class="cls-3" d="M430.33,217h-1.65v-0.6h4V217H431v4.84h-0.71V217Z" transform="translate(-286.13 -158.1)"/><path class="cls-3" d="M441.35,219.28h-2.11v2h2.35v0.59h-3.05v-5.43h2.93V217h-2.23v1.72h2.11v0.58Z" transform="translate(-286.13 -158.1)"/><path class="cls-3" d="M452.31,219.44c0-.76-0.09-1.67-0.08-2.34h0c-0.19.64-.41,1.31-0.69,2.06l-1,2.64H450l-0.88-2.59c-0.26-.77-0.48-1.47-0.63-2.11h0c0,0.68-.06,1.59-0.1,2.4l-0.15,2.33h-0.67l0.38-5.43h0.89l0.93,2.63c0.23,0.67.41,1.27,0.55,1.83h0c0.14-.55.33-1.14,0.57-1.83l1-2.63h0.89l0.34,5.43h-0.68Z" transform="translate(-286.13 -158.1)"/><path class="cls-3" d="M462.25,219.28h-2.11v2h2.35v0.59h-3.05v-5.43h2.93V217h-2.23v1.72h2.11v0.58Z" transform="translate(-286.13 -158.1)"/></svg>