<svg xmlns="http://www.w3.org/2000/svg" viewBox="0 0 89.52 43.25"><defs><style>.cls-1{fill:#999492;}.cls-2{fill:#272824;}.cls-3{fill:#00953d;}</style></defs><title>kubis_logo</title><g id="Ebene_2" data-name="Ebene 2"><g id="Ebene_1-2" data-name="Ebene 1"><path class="cls-1" d="M0,38.5V5.81H1.11V38.5Zm18.39,0H17L1.25,20.88,16.32,5.81h1.3l-15,15.07Z"/><path class="cls-1" d="M29.19,39c-7.16,0-10-4.42-10-10.42V5.81h1.1V28.42c0,5.62,2.5,9.5,8.89,9.5s8.83-4,8.83-9.5V5.81h1.1V28.56C39.12,34.56,36.19,39,29.19,39Z"/><path class="cls-1" d="M64.9,29.67c0,5.9-4.18,8.83-10.85,8.83H45.6V5.81h6.77c6.91,0,10.85,2.73,10.85,8.06a6.86,6.86,0,0,1-6.15,7.3C61.3,21.41,64.9,24.05,64.9,29.67ZM46.71,20.74h8.16c4.32,0,7.24-2.74,7.24-6.82,0-4.75-3.4-7.1-9.6-7.1h-5.8Zm17.08,8.93c0-5.28-3.64-8-8.68-8h-8.4V37.49H54.1C60,37.49,63.79,35.09,63.79,29.67Z"/><path class="cls-2" d="M72.1,43.25V0h1.58V43.25Z"/><path class="cls-3" d="M89.11,8l-.38.47A6.07,6.07,0,0,0,84.65,7c-2.27,0-4,1.23-4,3.15s1.14,2.57,4.14,3.38c3.41.94,4.69,1.9,4.69,4.4s-2,4.2-4.92,4.2a7.33,7.33,0,0,1-5.1-1.92l.38-.44a6.68,6.68,0,0,0,4.72,1.75c2.42,0,4.25-1.28,4.25-3.59s-1-3-4.31-3.87S80,12.2,80,10.16c0-2.21,2-3.73,4.61-3.73A6.71,6.71,0,0,1,89.11,8Z"/></g></g></svg>